<mxfile host="app.diagrams.net" modified="2024-05-10T15:34:11.901Z" agent="Mozilla/5.0 (Windows NT 10.0; Win64; x64) AppleWebKit/537.36 (KHTML, like Gecko) Chrome/124.0.0.0 Safari/537.36" etag="7UcYAGHqg5v_IsIQQkXy" version="24.0.2" type="device" pages="2">
  <diagram id="C5RBs43oDa-KdzZeNtuy" name="K-Means">
    <mxGraphModel dx="910" dy="459" grid="1" gridSize="10" guides="1" tooltips="1" connect="1" arrows="1" fold="1" page="1" pageScale="1" pageWidth="827" pageHeight="1169" math="0" shadow="0">
      <root>
        <mxCell id="WIyWlLk6GJQsqaUBKTNV-0" />
        <mxCell id="WIyWlLk6GJQsqaUBKTNV-1" parent="WIyWlLk6GJQsqaUBKTNV-0" />
        <mxCell id="vWlmjtfe9jOJ-1-5AdDO-1" value="" style="edgeStyle=orthogonalEdgeStyle;rounded=0;orthogonalLoop=1;jettySize=auto;html=1;" edge="1" parent="WIyWlLk6GJQsqaUBKTNV-1" source="WIyWlLk6GJQsqaUBKTNV-3" target="vWlmjtfe9jOJ-1-5AdDO-0">
          <mxGeometry relative="1" as="geometry" />
        </mxCell>
        <mxCell id="WIyWlLk6GJQsqaUBKTNV-3" value="Start" style="rounded=1;whiteSpace=wrap;html=1;fontSize=12;glass=0;strokeWidth=1;shadow=0;" parent="WIyWlLk6GJQsqaUBKTNV-1" vertex="1">
          <mxGeometry x="160" y="210" width="120" height="40" as="geometry" />
        </mxCell>
        <mxCell id="vWlmjtfe9jOJ-1-5AdDO-4" value="" style="edgeStyle=orthogonalEdgeStyle;rounded=0;orthogonalLoop=1;jettySize=auto;html=1;entryX=0.5;entryY=0;entryDx=0;entryDy=0;" edge="1" parent="WIyWlLk6GJQsqaUBKTNV-1" source="vWlmjtfe9jOJ-1-5AdDO-0" target="vWlmjtfe9jOJ-1-5AdDO-8">
          <mxGeometry relative="1" as="geometry">
            <mxPoint x="220" y="310" as="targetPoint" />
          </mxGeometry>
        </mxCell>
        <mxCell id="vWlmjtfe9jOJ-1-5AdDO-0" value="Initialize k Centroids by randomly picking k datapoints as centroids" style="rounded=1;whiteSpace=wrap;html=1;fontSize=12;glass=0;strokeWidth=1;shadow=0;" vertex="1" parent="WIyWlLk6GJQsqaUBKTNV-1">
          <mxGeometry x="150" y="310" width="140" height="50" as="geometry" />
        </mxCell>
        <mxCell id="vWlmjtfe9jOJ-1-5AdDO-12" value="" style="edgeStyle=orthogonalEdgeStyle;rounded=0;orthogonalLoop=1;jettySize=auto;html=1;" edge="1" parent="WIyWlLk6GJQsqaUBKTNV-1" source="vWlmjtfe9jOJ-1-5AdDO-8" target="vWlmjtfe9jOJ-1-5AdDO-11">
          <mxGeometry relative="1" as="geometry" />
        </mxCell>
        <mxCell id="vWlmjtfe9jOJ-1-5AdDO-8" value="Assign data points to nearest centroid by calculating Euclidean distance" style="rounded=1;whiteSpace=wrap;html=1;fontSize=12;glass=0;strokeWidth=1;shadow=0;" vertex="1" parent="WIyWlLk6GJQsqaUBKTNV-1">
          <mxGeometry x="135" y="440" width="170" height="60" as="geometry" />
        </mxCell>
        <mxCell id="vWlmjtfe9jOJ-1-5AdDO-14" value="" style="edgeStyle=orthogonalEdgeStyle;rounded=0;orthogonalLoop=1;jettySize=auto;html=1;" edge="1" parent="WIyWlLk6GJQsqaUBKTNV-1" source="vWlmjtfe9jOJ-1-5AdDO-11">
          <mxGeometry relative="1" as="geometry">
            <mxPoint x="220" y="720" as="targetPoint" />
          </mxGeometry>
        </mxCell>
        <mxCell id="vWlmjtfe9jOJ-1-5AdDO-11" value="Update centroid by calculating mean of data points assigned to the centroid and moving the centroid to said mean" style="rounded=1;whiteSpace=wrap;html=1;fontSize=12;glass=0;strokeWidth=1;shadow=0;" vertex="1" parent="WIyWlLk6GJQsqaUBKTNV-1">
          <mxGeometry x="135" y="580" width="170" height="60" as="geometry" />
        </mxCell>
        <mxCell id="vWlmjtfe9jOJ-1-5AdDO-20" value="" style="edgeStyle=orthogonalEdgeStyle;rounded=0;orthogonalLoop=1;jettySize=auto;html=1;" edge="1" parent="WIyWlLk6GJQsqaUBKTNV-1" source="vWlmjtfe9jOJ-1-5AdDO-18" target="vWlmjtfe9jOJ-1-5AdDO-19">
          <mxGeometry relative="1" as="geometry" />
        </mxCell>
        <mxCell id="vWlmjtfe9jOJ-1-5AdDO-21" value="No" style="edgeLabel;html=1;align=center;verticalAlign=middle;resizable=0;points=[];" vertex="1" connectable="0" parent="vWlmjtfe9jOJ-1-5AdDO-20">
          <mxGeometry x="-0.4688" y="-4" relative="1" as="geometry">
            <mxPoint as="offset" />
          </mxGeometry>
        </mxCell>
        <mxCell id="vWlmjtfe9jOJ-1-5AdDO-18" value="Check for convergence by checking if centroids have changed significantly or not" style="rhombus;whiteSpace=wrap;html=1;" vertex="1" parent="WIyWlLk6GJQsqaUBKTNV-1">
          <mxGeometry x="125" y="720" width="190" height="170" as="geometry" />
        </mxCell>
        <mxCell id="vWlmjtfe9jOJ-1-5AdDO-19" value="Return" style="rounded=1;whiteSpace=wrap;html=1;" vertex="1" parent="WIyWlLk6GJQsqaUBKTNV-1">
          <mxGeometry x="430" y="775" width="120" height="60" as="geometry" />
        </mxCell>
        <mxCell id="vWlmjtfe9jOJ-1-5AdDO-22" value="" style="endArrow=classic;html=1;rounded=0;entryX=0;entryY=0.5;entryDx=0;entryDy=0;exitX=0;exitY=0.5;exitDx=0;exitDy=0;" edge="1" parent="WIyWlLk6GJQsqaUBKTNV-1" source="vWlmjtfe9jOJ-1-5AdDO-18" target="vWlmjtfe9jOJ-1-5AdDO-8">
          <mxGeometry width="50" height="50" relative="1" as="geometry">
            <mxPoint x="390" y="820" as="sourcePoint" />
            <mxPoint x="440" y="770" as="targetPoint" />
            <Array as="points">
              <mxPoint x="80" y="805" />
              <mxPoint x="80" y="470" />
            </Array>
          </mxGeometry>
        </mxCell>
        <mxCell id="vWlmjtfe9jOJ-1-5AdDO-23" value="Yes" style="edgeLabel;html=1;align=center;verticalAlign=middle;resizable=0;points=[];" vertex="1" connectable="0" parent="vWlmjtfe9jOJ-1-5AdDO-22">
          <mxGeometry x="-0.7078" y="1" relative="1" as="geometry">
            <mxPoint as="offset" />
          </mxGeometry>
        </mxCell>
      </root>
    </mxGraphModel>
  </diagram>
  <diagram id="Eo-vagTJvHfkiEmq-Bk1" name="SOM">
    <mxGraphModel dx="910" dy="459" grid="1" gridSize="10" guides="1" tooltips="1" connect="1" arrows="1" fold="1" page="1" pageScale="1" pageWidth="850" pageHeight="1100" math="0" shadow="0">
      <root>
        <mxCell id="0" />
        <mxCell id="1" parent="0" />
        <mxCell id="VyumLCqY4UTAsbk1o5Hl-1" value="" style="edgeStyle=orthogonalEdgeStyle;rounded=0;orthogonalLoop=1;jettySize=auto;html=1;" edge="1" parent="1" source="VyumLCqY4UTAsbk1o5Hl-2" target="VyumLCqY4UTAsbk1o5Hl-4">
          <mxGeometry relative="1" as="geometry" />
        </mxCell>
        <mxCell id="VyumLCqY4UTAsbk1o5Hl-2" value="Start" style="rounded=1;whiteSpace=wrap;html=1;fontSize=12;glass=0;strokeWidth=1;shadow=0;" vertex="1" parent="1">
          <mxGeometry x="160" y="210" width="120" height="40" as="geometry" />
        </mxCell>
        <mxCell id="VyumLCqY4UTAsbk1o5Hl-16" value="" style="edgeStyle=orthogonalEdgeStyle;rounded=0;orthogonalLoop=1;jettySize=auto;html=1;" edge="1" parent="1" source="VyumLCqY4UTAsbk1o5Hl-4" target="VyumLCqY4UTAsbk1o5Hl-15">
          <mxGeometry relative="1" as="geometry" />
        </mxCell>
        <mxCell id="VyumLCqY4UTAsbk1o5Hl-4" value="Initialize SOM grid by assigning dimensions and randomly assigning weights" style="rounded=1;whiteSpace=wrap;html=1;fontSize=12;glass=0;strokeWidth=1;shadow=0;" vertex="1" parent="1">
          <mxGeometry x="140" y="310" width="160" height="50" as="geometry" />
        </mxCell>
        <mxCell id="VyumLCqY4UTAsbk1o5Hl-5" value="" style="edgeStyle=orthogonalEdgeStyle;rounded=0;orthogonalLoop=1;jettySize=auto;html=1;" edge="1" parent="1" source="VyumLCqY4UTAsbk1o5Hl-6" target="VyumLCqY4UTAsbk1o5Hl-8">
          <mxGeometry relative="1" as="geometry" />
        </mxCell>
        <mxCell id="VyumLCqY4UTAsbk1o5Hl-6" value="Select random data point" style="rounded=1;whiteSpace=wrap;html=1;fontSize=12;glass=0;strokeWidth=1;shadow=0;" vertex="1" parent="1">
          <mxGeometry x="135" y="590" width="170" height="60" as="geometry" />
        </mxCell>
        <mxCell id="VyumLCqY4UTAsbk1o5Hl-19" value="" style="edgeStyle=orthogonalEdgeStyle;rounded=0;orthogonalLoop=1;jettySize=auto;html=1;" edge="1" parent="1" source="VyumLCqY4UTAsbk1o5Hl-8" target="VyumLCqY4UTAsbk1o5Hl-18">
          <mxGeometry relative="1" as="geometry" />
        </mxCell>
        <mxCell id="VyumLCqY4UTAsbk1o5Hl-8" value="Calculate BMU by calculating Euclidean distance between data point and each neurons weight and select the smallest" style="rounded=1;whiteSpace=wrap;html=1;fontSize=12;glass=0;strokeWidth=1;shadow=0;" vertex="1" parent="1">
          <mxGeometry x="135" y="730" width="170" height="60" as="geometry" />
        </mxCell>
        <mxCell id="VyumLCqY4UTAsbk1o5Hl-9" value="" style="edgeStyle=orthogonalEdgeStyle;rounded=0;orthogonalLoop=1;jettySize=auto;html=1;" edge="1" parent="1" source="VyumLCqY4UTAsbk1o5Hl-11" target="VyumLCqY4UTAsbk1o5Hl-12">
          <mxGeometry relative="1" as="geometry" />
        </mxCell>
        <mxCell id="VyumLCqY4UTAsbk1o5Hl-10" value="Yes" style="edgeLabel;html=1;align=center;verticalAlign=middle;resizable=0;points=[];" vertex="1" connectable="0" parent="VyumLCqY4UTAsbk1o5Hl-9">
          <mxGeometry x="-0.4688" y="-4" relative="1" as="geometry">
            <mxPoint as="offset" />
          </mxGeometry>
        </mxCell>
        <mxCell id="VyumLCqY4UTAsbk1o5Hl-11" value="Check for convergence&amp;nbsp;" style="rhombus;whiteSpace=wrap;html=1;" vertex="1" parent="1">
          <mxGeometry x="142.5" y="990" width="155" height="150" as="geometry" />
        </mxCell>
        <mxCell id="VyumLCqY4UTAsbk1o5Hl-12" value="Return" style="rounded=1;whiteSpace=wrap;html=1;" vertex="1" parent="1">
          <mxGeometry x="427.5" y="1035" width="120" height="60" as="geometry" />
        </mxCell>
        <mxCell id="VyumLCqY4UTAsbk1o5Hl-13" value="" style="endArrow=classic;html=1;rounded=0;entryX=0;entryY=0.5;entryDx=0;entryDy=0;exitX=0;exitY=0.5;exitDx=0;exitDy=0;" edge="1" parent="1" source="VyumLCqY4UTAsbk1o5Hl-11" target="VyumLCqY4UTAsbk1o5Hl-6">
          <mxGeometry width="50" height="50" relative="1" as="geometry">
            <mxPoint x="390" y="970" as="sourcePoint" />
            <mxPoint x="440" y="920" as="targetPoint" />
            <Array as="points">
              <mxPoint x="80" y="1065" />
              <mxPoint x="80" y="620" />
            </Array>
          </mxGeometry>
        </mxCell>
        <mxCell id="VyumLCqY4UTAsbk1o5Hl-14" value="No" style="edgeLabel;html=1;align=center;verticalAlign=middle;resizable=0;points=[];" vertex="1" connectable="0" parent="VyumLCqY4UTAsbk1o5Hl-13">
          <mxGeometry x="-0.7078" y="1" relative="1" as="geometry">
            <mxPoint as="offset" />
          </mxGeometry>
        </mxCell>
        <mxCell id="VyumLCqY4UTAsbk1o5Hl-17" value="" style="edgeStyle=orthogonalEdgeStyle;rounded=0;orthogonalLoop=1;jettySize=auto;html=1;" edge="1" parent="1" source="VyumLCqY4UTAsbk1o5Hl-15" target="VyumLCqY4UTAsbk1o5Hl-6">
          <mxGeometry relative="1" as="geometry" />
        </mxCell>
        <mxCell id="VyumLCqY4UTAsbk1o5Hl-15" value="Initialize learning rate, neighbourhood function and convergence critera" style="rounded=1;whiteSpace=wrap;html=1;fontSize=12;glass=0;strokeWidth=1;shadow=0;" vertex="1" parent="1">
          <mxGeometry x="140" y="440" width="160" height="50" as="geometry" />
        </mxCell>
        <mxCell id="VyumLCqY4UTAsbk1o5Hl-20" value="" style="edgeStyle=orthogonalEdgeStyle;rounded=0;orthogonalLoop=1;jettySize=auto;html=1;" edge="1" parent="1" source="VyumLCqY4UTAsbk1o5Hl-18" target="VyumLCqY4UTAsbk1o5Hl-11">
          <mxGeometry relative="1" as="geometry" />
        </mxCell>
        <mxCell id="VyumLCqY4UTAsbk1o5Hl-18" value="Update BMU and neighbouring neuron weights using neighbourhood function and learning rate" style="rounded=1;whiteSpace=wrap;html=1;fontSize=12;glass=0;strokeWidth=1;shadow=0;" vertex="1" parent="1">
          <mxGeometry x="135" y="870" width="170" height="60" as="geometry" />
        </mxCell>
      </root>
    </mxGraphModel>
  </diagram>
</mxfile>
